<svg width="50" height="50" viewBox="0 0 50 50" fill="none" xmlns="http://www.w3.org/2000/svg">
<path d="M45.6133 27.7793C45.4129 27.5784 45.1616 27.4359 44.8863 27.3671C44.611 27.2983 44.3222 27.3057 44.0508 27.3886C41.0715 28.2893 37.9036 28.3649 34.8847 27.6072C31.8658 26.8494 29.1091 25.2869 26.9082 23.086C24.7073 20.8851 23.1447 18.1284 22.387 15.1095C21.6293 12.0906 21.7048 8.92269 22.6055 5.94333C22.6891 5.67185 22.6971 5.38272 22.6287 5.10703C22.5602 4.83134 22.4179 4.57953 22.2171 4.37867C22.0162 4.17781 21.7644 4.0355 21.4887 3.96706C21.213 3.89861 20.9239 3.90662 20.6524 3.99021C16.5333 5.25202 12.9171 7.78082 10.3184 11.2168C8.0458 14.2341 6.65955 17.8253 6.31543 21.587C5.97131 25.3487 6.68295 29.1319 8.3704 32.5115C10.0578 35.891 12.6542 38.7331 15.8679 40.7184C19.0816 42.7037 22.7851 43.7535 26.5626 43.75C30.9695 43.7636 35.2592 42.3309 38.7735 39.6719C42.2095 37.0731 44.7383 33.457 46.0001 29.3379C46.0827 29.0674 46.0904 28.7796 46.0223 28.5051C45.9541 28.2306 45.8128 27.9797 45.6133 27.7793ZM36.8946 37.1758C33.5851 39.6685 29.4866 40.8818 25.3535 40.5924C21.2204 40.303 17.3309 38.5303 14.4011 35.6007C11.4713 32.6712 9.69834 28.7819 9.40861 24.6488C9.11887 20.5157 10.3319 16.4171 12.8243 13.1074C14.4481 10.963 16.5475 9.22468 18.9571 8.02927C18.8198 8.9926 18.7506 9.96441 18.7501 10.9375C18.7558 16.3229 20.8976 21.4862 24.7057 25.2943C28.5138 29.1024 33.6771 31.2443 39.0626 31.25C40.0376 31.2497 41.0114 31.1805 41.9766 31.0429C40.7801 33.453 39.0404 35.5524 36.8946 37.1758Z" fill="black"/>
</svg>
